<svg width="387.90125732421876px" height="189.99998779296874px" xmlns="http://www.w3.org/2000/svg" viewBox="56.04937133789062 -19.99999389648437 387.90125732421876 189.99998779296874" style="background:rgb(29,181,147)" preserveAspectRatio="xMidYMid"><defs><linearGradient id="editing-shadow-gradient1" x1="0" x2="0" y1="0" y2="1"><stop offset="0" stop-color="#000000" stop-opacity="0"></stop><stop offset="0.2" stop-color="#000000" stop-opacity="0"></stop><stop offset="1" stop-color="#000000" stop-opacity="1"></stop></linearGradient><linearGradient id="editing-shadow-gradient2" x1="-0.254709580222772" x2="1.2547095802227721" y1="-0.15605902899050716" y2="1.1560590289905073"><stop offset="0" stop-color="#ffffff"></stop><stop offset="1" stop-color="#fec918"></stop></linearGradient><filter id="editing-shadow" x="-100%" y="-100%" width="300%" height="300%"><feGaussianBlur stdDeviation="2"></feGaussianBlur><feComposite operator="in" in2="SourceGraphic"></feComposite><feGaussianBlur stdDeviation="1"></feGaussianBlur></filter></defs><g transform="translate(250,75)"><g transform="translate(-31.2, -1.2)"><g transform="skewX(45)"><g filter="url(#editing-shadow)"><g transform="translate(-70.40468740463257, 38.099998474121094)"><path d="M29-28.60L29-28.60L29-28.60Q30.40-28.60 30.40-25.30L30.40-25.30L30.40-25.30Q30.40-20.30 25.45-15.95L25.45-15.95L25.45-15.95Q20.50-11.60 14.10-11.60L14.10-11.60L14.10-11.60Q10-11.60 6.20-13.60L6.20-13.60L6.20-13.60Q-1.90-18-1.90-28.90L-1.90-28.90L-1.90-28.90Q-1.90-36.60 2.30-44L2.30-44L2.30-44Q8.10-54.10 18.95-60L18.95-60L18.95-60Q29.80-65.90 40.10-65.90L40.10-65.90L40.10-65.90Q47.60-65.90 52.40-62.60L52.40-62.60L52.40-62.60Q57.80-58.90 57.80-51.60L57.80-51.60L57.80-51.60Q57.80-42.30 48.80-22.45L48.80-22.45L48.80-22.45Q39.80-2.60 39.80 0L39.80 0L39.80 0Q39.80 0.80 40.30 0.50L40.30 0.50L40.30 0.50Q42.90-1.20 64.15-26.65L64.15-26.65L64.15-26.65Q85.40-52.10 93.70-58.10L93.70-58.10L93.70-58.10Q101.10-63.60 106.05-66.35L106.05-66.35L106.05-66.35Q111-69.10 116.20-69.10L116.20-69.10L116.20-69.10Q117.60-69.10 118.30-69L118.30-69L118.30-69Q121-68.80 121-66.20L121-66.20L121-66.20Q121-64.90 120.10-64.90L120.10-64.90L120.10-64.90Q120-64.90 118.70-65.35L118.70-65.35L118.70-65.35Q117.40-65.80 116.50-65.80L116.50-65.80L116.50-65.80Q102.50-65.80 78.80-40.50L78.80-40.50L78.80-40.50Q69.90-31 57.15-14.90L57.15-14.90L57.15-14.90Q44.40 1.20 42.10 2.50L42.10 2.50L42.10 2.50Q34 7.10 33 7.10L33 7.10L33 7.10Q32.70 7.10 32.70 6.10L32.70 6.10L32.70 6.10Q32.70 2.80 38.30-10.70L38.30-10.70L38.30-10.70Q40.60-15.90 45-26.30L45-26.30L49.60-39.80L49.60-39.80Q52-46.60 52-49.70L52-49.70L52-49.70Q52-56.60 48-60.20L48-60.20L48-60.20Q44-63.80 36.50-63.80L36.50-63.80L36.50-63.80Q29-63.80 20.40-58.50L20.40-58.50L20.40-58.50Q11.10-52.50 6.50-43.70L6.50-43.70L6.50-43.70Q1.90-34.90 1.90-28.80L1.90-28.80L1.90-28.80Q1.90-22.70 4.40-19.20L4.40-19.20L4.40-19.20Q8.50-13.50 15.30-13.50L15.30-13.50L15.30-13.50Q20.50-13.50 24.50-16.95L24.50-16.95L24.50-16.95Q28.50-20.40 28.50-25.70L28.50-25.70L28.50-25.70Q28.50-26.80 28.25-27.70L28.25-27.70L28.25-27.70Q28-28.60 29-28.60ZM134.20-61.20L134.20-61.20L134.20-61.20Q143.60-61.20 143.60-52.80L143.60-52.80L143.60-52.80Q143.60-52.50 143.60-52.10L143.60-52.10L143.60-52.10Q143.10-43.40 125.70-38L125.70-38L125.70-38Q140.80-36.40 140.80-27.40L140.80-27.40L140.80-27.40Q140.80-25.90 140.40-24.60L140.40-24.60L140.40-24.60Q137.40-12.80 122.70-5.40L122.70-5.40L122.70-5.40Q109.80 1 94.50 1L94.50 1L94.50 1Q84.70 1 78.45-2.10L78.45-2.10L78.45-2.10Q72.20-5.20 72.20-11L72.20-11L72.20-11Q72.20-14.10 74.40-18.10L74.40-18.10L74.40-18.10Q76.60-22.10 83.45-25L83.45-25L83.45-25Q90.30-27.90 94.90-27.90L94.90-27.90L94.90-27.90Q96.10-27.90 96.10-27.10L96.10-27.10L96.10-27.10Q96.10-26.10 94.70-26.10L94.70-26.10L94.70-26.10Q91.40-26.10 86.15-22.85L86.15-22.85L86.15-22.85Q80.90-19.60 79.90-16.10L79.90-16.10L79.90-16.10Q79.40-14.10 79.40-12.70L79.40-12.70L79.40-12.70Q79.40-4 91.30-1.90L91.30-1.90L91.30-1.90Q94.40-1.30 97.60-1.30L97.60-1.30L97.60-1.30Q106.30-1.30 115.40-5.50L115.40-5.50L115.40-5.50Q129.40-12 134.30-24.20L134.30-24.20L134.30-24.20Q135-25.90 135-27.60L135-27.60L135-27.60Q135-31.60 130.80-33.40L130.80-33.40L130.80-33.40Q126.60-35.20 120.80-35.20L120.80-35.20L120.80-35.20Q115-35.20 111.10-33.70L111.10-33.70L111.10-33.70Q110.20-33.30 109.20-33.30L109.20-33.30L109.20-33.30Q107.40-33.30 107.40-35L107.40-35L107.40-35Q107.40-36.20 108.25-37.10L108.25-37.10L108.25-37.10Q109.10-38 110.30-38L110.30-38L110.30-38Q118.90-38 126.40-40.90L126.40-40.90L126.40-40.90Q136-44.70 137.20-51.60L137.20-51.60L137.20-51.60Q137.30-52.10 137.30-52.90L137.30-52.90L137.30-52.90Q137.30-57.20 131.95-57.20L131.95-57.20L131.95-57.20Q126.60-57.20 119.80-54.65L119.80-54.65L119.80-54.65Q113-52.10 108.30-49.10L108.30-49.10L108.30-49.10Q107.80-48.80 107.60-48.80L107.60-48.80L107.60-48.80Q106.90-48.80 106.90-50.10L106.90-50.10L106.90-50.10Q106.90-53.10 108.80-53.50L108.80-53.50L108.80-53.50Q111.10-54.20 116.10-58.90L116.10-58.90L116.10-58.90Q116.70-59.50 117.20-59.30L117.20-59.30L117.20-59.30Q117.70-59.10 117.70-58.55L117.70-58.55L117.70-58.55Q117.70-58 117.25-57.60L117.25-57.60L117.25-57.60Q116.80-57.20 116.30-56.60L116.30-56.60L116.30-56.60Q127-61.20 134.20-61.20Z" fill="url(#editing-shadow-gradient1)"></path></g></g></g></g><g><g transform="translate(-70.40468740463257, 38.099998474121094)"><path d="M29-28.60L29-28.60L29-28.60Q30.40-28.60 30.40-25.30L30.40-25.30L30.40-25.30Q30.40-20.30 25.45-15.95L25.45-15.95L25.45-15.95Q20.50-11.60 14.10-11.60L14.10-11.60L14.10-11.60Q10-11.60 6.20-13.60L6.20-13.60L6.20-13.60Q-1.90-18-1.90-28.90L-1.90-28.90L-1.90-28.90Q-1.90-36.60 2.30-44L2.30-44L2.30-44Q8.10-54.10 18.95-60L18.95-60L18.95-60Q29.80-65.90 40.10-65.90L40.10-65.90L40.10-65.90Q47.60-65.90 52.40-62.60L52.40-62.60L52.40-62.60Q57.80-58.90 57.80-51.60L57.80-51.60L57.80-51.60Q57.80-42.30 48.80-22.45L48.80-22.45L48.80-22.45Q39.80-2.60 39.80 0L39.80 0L39.80 0Q39.80 0.80 40.30 0.50L40.30 0.50L40.30 0.50Q42.90-1.20 64.15-26.65L64.15-26.65L64.15-26.65Q85.40-52.10 93.70-58.10L93.70-58.10L93.70-58.10Q101.10-63.60 106.05-66.35L106.05-66.35L106.05-66.35Q111-69.10 116.20-69.10L116.20-69.10L116.20-69.10Q117.60-69.10 118.30-69L118.30-69L118.30-69Q121-68.80 121-66.20L121-66.20L121-66.20Q121-64.90 120.10-64.90L120.10-64.90L120.10-64.90Q120-64.90 118.70-65.35L118.70-65.35L118.70-65.35Q117.40-65.80 116.50-65.80L116.50-65.80L116.50-65.80Q102.50-65.80 78.80-40.50L78.80-40.50L78.80-40.50Q69.90-31 57.15-14.90L57.15-14.90L57.15-14.90Q44.40 1.20 42.10 2.50L42.10 2.50L42.10 2.50Q34 7.10 33 7.10L33 7.10L33 7.10Q32.70 7.10 32.70 6.10L32.70 6.10L32.70 6.10Q32.70 2.80 38.30-10.70L38.30-10.70L38.30-10.70Q40.60-15.90 45-26.30L45-26.30L49.60-39.80L49.60-39.80Q52-46.60 52-49.70L52-49.70L52-49.70Q52-56.60 48-60.20L48-60.20L48-60.20Q44-63.80 36.50-63.80L36.50-63.80L36.50-63.80Q29-63.80 20.40-58.50L20.40-58.50L20.40-58.50Q11.10-52.50 6.50-43.70L6.50-43.70L6.50-43.70Q1.90-34.90 1.90-28.80L1.90-28.80L1.90-28.80Q1.90-22.70 4.40-19.20L4.40-19.20L4.40-19.20Q8.50-13.50 15.30-13.50L15.30-13.50L15.30-13.50Q20.50-13.50 24.50-16.95L24.50-16.95L24.50-16.95Q28.50-20.40 28.50-25.70L28.50-25.70L28.50-25.70Q28.50-26.80 28.25-27.70L28.25-27.70L28.25-27.70Q28-28.60 29-28.60ZM134.20-61.20L134.20-61.20L134.20-61.20Q143.60-61.20 143.60-52.80L143.60-52.80L143.60-52.80Q143.60-52.50 143.60-52.10L143.60-52.10L143.60-52.10Q143.10-43.40 125.70-38L125.70-38L125.70-38Q140.80-36.40 140.80-27.40L140.80-27.40L140.80-27.40Q140.80-25.90 140.40-24.60L140.40-24.60L140.40-24.60Q137.40-12.80 122.70-5.40L122.70-5.40L122.70-5.40Q109.80 1 94.50 1L94.50 1L94.50 1Q84.70 1 78.45-2.10L78.45-2.10L78.45-2.10Q72.20-5.20 72.20-11L72.20-11L72.20-11Q72.20-14.10 74.40-18.10L74.40-18.10L74.40-18.10Q76.60-22.10 83.45-25L83.45-25L83.45-25Q90.30-27.90 94.90-27.90L94.90-27.90L94.90-27.90Q96.10-27.90 96.10-27.10L96.10-27.10L96.10-27.10Q96.10-26.10 94.70-26.10L94.70-26.10L94.70-26.10Q91.40-26.10 86.15-22.85L86.15-22.85L86.15-22.85Q80.90-19.60 79.90-16.10L79.90-16.10L79.90-16.10Q79.40-14.10 79.40-12.70L79.40-12.70L79.40-12.70Q79.40-4 91.30-1.90L91.30-1.90L91.30-1.90Q94.40-1.30 97.60-1.30L97.60-1.30L97.60-1.30Q106.30-1.30 115.40-5.50L115.40-5.50L115.40-5.50Q129.40-12 134.30-24.20L134.30-24.20L134.30-24.20Q135-25.90 135-27.60L135-27.60L135-27.60Q135-31.60 130.80-33.40L130.80-33.40L130.80-33.40Q126.60-35.20 120.80-35.20L120.80-35.20L120.80-35.20Q115-35.20 111.10-33.70L111.10-33.70L111.10-33.70Q110.20-33.30 109.20-33.30L109.20-33.30L109.20-33.30Q107.40-33.30 107.40-35L107.40-35L107.40-35Q107.40-36.20 108.25-37.10L108.25-37.10L108.25-37.10Q109.10-38 110.30-38L110.30-38L110.30-38Q118.90-38 126.40-40.90L126.40-40.90L126.40-40.90Q136-44.70 137.20-51.60L137.20-51.60L137.20-51.60Q137.30-52.10 137.30-52.90L137.30-52.90L137.30-52.90Q137.30-57.20 131.95-57.20L131.95-57.20L131.95-57.20Q126.60-57.20 119.80-54.65L119.80-54.65L119.80-54.65Q113-52.10 108.30-49.10L108.30-49.10L108.30-49.10Q107.80-48.80 107.60-48.80L107.60-48.80L107.60-48.80Q106.90-48.80 106.90-50.10L106.90-50.10L106.90-50.10Q106.90-53.10 108.80-53.50L108.80-53.50L108.80-53.50Q111.10-54.20 116.10-58.90L116.10-58.90L116.10-58.90Q116.70-59.50 117.20-59.30L117.20-59.30L117.20-59.30Q117.70-59.10 117.70-58.55L117.70-58.55L117.70-58.55Q117.70-58 117.25-57.60L117.25-57.60L117.25-57.60Q116.80-57.20 116.30-56.60L116.30-56.60L116.30-56.60Q127-61.20 134.20-61.20Z" fill="url(#editing-shadow-gradient2)"></path></g></g></g><style>text {
  font-size: 64px;
  font-family: Arial Black;
  dominant-baseline: central;
  text-anchor: middle;
}</style></svg>